# xmcd
#
# Track frame offsets:
#	150
#	18144
#	31152
#	46134
#	57702
#	70779
#	92667
#	105315
#	123018
#	135475
#	145627
#	163580
#
# Disc length: 2323 seconds
#
# Revision: 1
# Processed by: cddbd v1.5.2PL0 Copyright (c) Steve Scherf et al.
# Submitted via: audiograbber 1.83.01
#
DISCID=8e09110c
DTITLE=Diamond Rio - The Star Still Shines:  A Diamond Rio Christmas
DYEAR=1900
DGENRE=
TTITLE0=The Star Still Shines
TTITLE1=Walking In A Winter Wonderland
TTITLE2=The Christmas Song
TTITLE3=Let It Snow, Let It Snow, Let It Snow
TTITLE4=O Come, O Come Emmanuel
TTITLE5=Sleigh Ride
TTITLE6=Christmas Time Is Here
TTITLE7=I'll Be Home For Christmas
TTITLE8=Christmas Times A Comin'
TTITLE9=Hark! The Herald Angels Sing
TTITLE10=Have Yourself A Merry Little Christmas
TTITLE11=Christmas Is Coming (Instrumental)-From Charlie Brown Christmas
EXTD=
EXTT0=
EXTT1=
EXTT2=
EXTT3=
EXTT4=
EXTT5=
EXTT6=
EXTT7=
EXTT8=
EXTT9=
EXTT10=
EXTT11=
PLAYORDER=
